<?xml version="1.0" encoding="UTF-8" standalone="no"?>
<!DOCTYPE svg PUBLIC "-//W3C//DTD SVG 1.1//EN"
 "http://www.w3.org/Graphics/SVG/1.1/DTD/svg11.dtd">
<!-- Generated by graphviz version 2.38.0 (20140413.2041)
 -->
<!-- Title: Class Pages: 1 -->
<svg width="494pt" height="152pt"
 viewBox="0.00 0.00 494.00 152.00" xmlns="http://www.w3.org/2000/svg" xmlns:xlink="http://www.w3.org/1999/xlink">
<g id="graph0" class="graph" transform="scale(1 1) rotate(0) translate(4 148)">
<title>Class</title>
<polygon fill="white" stroke="none" points="-4,4 -4,-148 490,-148 490,4 -4,4"/>
<!-- N -->
<g id="node1" class="node"><title>N</title>
<text text-anchor="start" x="180.749" y="-125.8" font-family="DejaVu Sans Mono" font-size="14.00">AllocatorPerContext</text>
<text text-anchor="start" x="11" y="-99.8" font-family="DejaVu Sans Mono" font-size="14.00">+ confChanged(conf:Configuration): void</text>
<text text-anchor="start" x="11" y="-81.8" font-family="DejaVu Sans Mono" font-size="14.00">+ createPath(path:String): Path</text>
<text text-anchor="start" x="11" y="-63.8" font-family="DejaVu Sans Mono" font-size="14.00">+ getLocalPathForWrite(pathStr:String, size:long, conf:Configuration): Path</text>
<text text-anchor="start" x="10.6738" y="-45.8" font-family="DejaVu Sans Mono" font-size="14.00">+ createTmpFileForWrite(pathStr:String, size:long, conf:Configuration): File</text>
<text text-anchor="start" x="11" y="-27.8" font-family="DejaVu Sans Mono" font-size="14.00">+ getLocalPathToRead(pathStr:String, conf:Configuration): Path</text>
<text text-anchor="start" x="11" y="-9.8" font-family="DejaVu Sans Mono" font-size="14.00">+ ifExists(pathStr:String, conf:Configuration): boolean</text>
<polygon fill="black" stroke="black" points="8,-121 8,-121 478,-121 478,-121 8,-121"/>
<polygon fill="black" stroke="black" points="8,-117 8,-117 478,-117 478,-117 8,-117"/>
<polygon fill="none" stroke="black" points="8,-4 8,-140 478,-140 478,-4 8,-4"/>
</g>
</g>
</svg>
