<?xml version="1.0" encoding="UTF-8" standalone="no"?>
<!DOCTYPE svg PUBLIC "-//W3C//DTD SVG 1.1//EN"
 "http://www.w3.org/Graphics/SVG/1.1/DTD/svg11.dtd">
<!-- Generated by graphviz version 2.38.0 (20140413.2041)
 -->
<!-- Title: Class Pages: 1 -->
<svg width="332pt" height="260pt"
 viewBox="0.00 0.00 332.00 260.00" xmlns="http://www.w3.org/2000/svg" xmlns:xlink="http://www.w3.org/1999/xlink">
<g id="graph0" class="graph" transform="scale(1 1) rotate(0) translate(4 256)">
<title>Class</title>
<polygon fill="white" stroke="none" points="-4,4 -4,-256 328,-256 328,4 -4,4"/>
<!-- N -->
<g id="node1" class="node"><title>N</title>
<text text-anchor="start" x="118.417" y="-233.8" font-family="DejaVu Sans Mono" font-size="14.00">BlockLocation</text>
<text text-anchor="start" x="11" y="-207.8" font-family="DejaVu Sans Mono" font-size="14.00">+ getHosts(): String[]</text>
<text text-anchor="start" x="11" y="-189.8" font-family="DejaVu Sans Mono" font-size="14.00">+ getNames(): String[]</text>
<text text-anchor="start" x="11" y="-171.8" font-family="DejaVu Sans Mono" font-size="14.00">+ getTopologyPaths(): String[]</text>
<text text-anchor="start" x="11" y="-153.8" font-family="DejaVu Sans Mono" font-size="14.00">+ getOffset(): long</text>
<text text-anchor="start" x="11" y="-135.8" font-family="DejaVu Sans Mono" font-size="14.00">+ getLength(): long</text>
<text text-anchor="start" x="11" y="-117.8" font-family="DejaVu Sans Mono" font-size="14.00">+ setOffset(offset:long): void</text>
<text text-anchor="start" x="11" y="-99.8" font-family="DejaVu Sans Mono" font-size="14.00">+ setLength(length:long): void</text>
<text text-anchor="start" x="11" y="-81.8" font-family="DejaVu Sans Mono" font-size="14.00">+ setHosts(hosts:String[]): void</text>
<text text-anchor="start" x="11" y="-63.8" font-family="DejaVu Sans Mono" font-size="14.00">+ setNames(names:String[]): void</text>
<text text-anchor="start" x="10.8301" y="-45.8" font-family="DejaVu Sans Mono" font-size="14.00">+ setTopologyPaths(topologyPaths:String[]): void</text>
<text text-anchor="start" x="11" y="-27.8" font-family="DejaVu Sans Mono" font-size="14.00">+ write(out:DataOutput): void</text>
<text text-anchor="start" x="11" y="-9.8" font-family="DejaVu Sans Mono" font-size="14.00">+ readFields(in:DataInput): void</text>
<polygon fill="black" stroke="black" points="8,-229 8,-229 316,-229 316,-229 8,-229"/>
<polygon fill="black" stroke="black" points="8,-225 8,-225 316,-225 316,-225 8,-225"/>
<polygon fill="none" stroke="black" points="8,-4 8,-248 316,-248 316,-4 8,-4"/>
</g>
</g>
</svg>
