<?xml version="1.0" encoding="UTF-8" standalone="no"?>
<!DOCTYPE svg PUBLIC "-//W3C//DTD SVG 1.1//EN"
 "http://www.w3.org/Graphics/SVG/1.1/DTD/svg11.dtd">
<!-- Generated by graphviz version 2.38.0 (20140413.2041)
 -->
<!-- Title: Class Pages: 1 -->
<svg width="775pt" height="242pt"
 viewBox="0.00 0.00 775.00 242.00" xmlns="http://www.w3.org/2000/svg" xmlns:xlink="http://www.w3.org/1999/xlink">
<g id="graph0" class="graph" transform="scale(1 1) rotate(0) translate(4 238)">
<title>Class</title>
<polygon fill="white" stroke="none" points="-4,4 -4,-238 771,-238 771,4 -4,4"/>
<!-- N -->
<g id="node1" class="node"><title>N</title>
<text text-anchor="start" x="343.159" y="-215.8" font-family="DejaVu Sans Mono" font-size="14.00">ChecksumFs</text>
<text text-anchor="start" x="11.5" y="-189.8" font-family="DejaVu Sans Mono" font-size="14.00">+ setVerifyChecksum(inVerifyChecksum:boolean): void</text>
<text text-anchor="start" x="11.5" y="-171.8" font-family="DejaVu Sans Mono" font-size="14.00">+ getRawFs(): AbstractFileSystem</text>
<text text-anchor="start" x="11.5" y="-153.8" font-family="DejaVu Sans Mono" font-size="14.00">+ getChecksumFile(file:Path): Path</text>
<text text-anchor="start" x="11.5" y="-135.8" font-family="DejaVu Sans Mono" font-size="14.00">+ isChecksumFile(file:Path): boolean</text>
<text text-anchor="start" x="11.5" y="-117.8" font-family="DejaVu Sans Mono" font-size="14.00">+ getChecksumFileLength(file:Path, fileSize:long): long</text>
<text text-anchor="start" x="11.5" y="-99.8" font-family="DejaVu Sans Mono" font-size="14.00">+ getBytesPerSum(): int</text>
<text text-anchor="start" x="11.5" y="-81.8" font-family="DejaVu Sans Mono" font-size="14.00">+ open(f:Path, bufferSize:int): FSDataInputStream</text>
<text text-anchor="start" x="11.5" y="-63.8" font-family="DejaVu Sans Mono" font-size="14.00">+ getChecksumLength(size:long, bytesPerSum:int): long</text>
<text text-anchor="start" x="11.5" y="-45.8" font-family="DejaVu Sans Mono" font-size="14.00">+ renameInternal(src:Path, dst:Path): void</text>
<text text-anchor="start" x="11.5" y="-27.8" font-family="DejaVu Sans Mono" font-size="14.00">+ delete(f:Path, recursive:boolean): boolean</text>
<text text-anchor="start" x="11.4653" y="-9.8" font-family="DejaVu Sans Mono" font-size="14.00">+ reportChecksumFailure(f:Path, in:FSDataInputStream, inPos:long, sums:FSDataInputStream, sumsPos:long): boolean</text>
<polygon fill="black" stroke="black" points="8.5,-211 8.5,-211 759.5,-211 759.5,-211 8.5,-211"/>
<polygon fill="black" stroke="black" points="8.5,-207 8.5,-207 759.5,-207 759.5,-207 8.5,-207"/>
<polygon fill="none" stroke="black" points="8,-4 8,-230 759,-230 759,-4 8,-4"/>
</g>
</g>
</svg>
