<?xml version="1.0" encoding="UTF-8" standalone="no"?>
<!DOCTYPE svg PUBLIC "-//W3C//DTD SVG 1.1//EN"
 "http://www.w3.org/Graphics/SVG/1.1/DTD/svg11.dtd">
<!-- Generated by graphviz version 2.38.0 (20140413.2041)
 -->
<!-- Title: Class Pages: 1 -->
<svg width="263pt" height="188pt"
 viewBox="0.00 0.00 263.00 188.00" xmlns="http://www.w3.org/2000/svg" xmlns:xlink="http://www.w3.org/1999/xlink">
<g id="graph0" class="graph" transform="scale(1 1) rotate(0) translate(4 184)">
<title>Class</title>
<polygon fill="white" stroke="none" points="-4,4 -4,-184 259,-184 259,4 -4,4"/>
<!-- N -->
<g id="node1" class="node"><title>N</title>
<text text-anchor="start" x="73.5347" y="-161.8" font-family="DejaVu Sans Mono" font-size="14.00">ContentSummary</text>
<text text-anchor="start" x="11.5" y="-139.8" font-family="DejaVu Sans Mono" font-size="14.00">&#45; STRING_FORMAT: String</text>
<text text-anchor="start" x="11.5" y="-121.8" font-family="DejaVu Sans Mono" font-size="14.00">&#45; QUOTA_STRING_FORMAT: String</text>
<text text-anchor="start" x="11.5" y="-103.8" font-family="DejaVu Sans Mono" font-size="14.00">&#45; HEADER: String</text>
<text text-anchor="start" x="11.5" y="-81.8" font-family="DejaVu Sans Mono" font-size="14.00">+ getQuota(): long</text>
<text text-anchor="start" x="11.5" y="-63.8" font-family="DejaVu Sans Mono" font-size="14.00">+ getSpaceConsumed(): long</text>
<text text-anchor="start" x="11.5" y="-45.8" font-family="DejaVu Sans Mono" font-size="14.00">+ getSpaceQuota(): long</text>
<text text-anchor="start" x="11.0645" y="-27.8" font-family="DejaVu Sans Mono" font-size="14.00">+ getHeader(qOption:boolean): String</text>
<text text-anchor="start" x="11.5" y="-9.8" font-family="DejaVu Sans Mono" font-size="14.00">+ toString(qOption:boolean): String</text>
<polygon fill="black" stroke="black" points="8.5,-157 8.5,-157 247.5,-157 247.5,-157 8.5,-157"/>
<polygon fill="black" stroke="black" points="8.5,-99 8.5,-99 247.5,-99 247.5,-99 8.5,-99"/>
<polygon fill="none" stroke="black" points="8,-4 8,-176 247,-176 247,-4 8,-4"/>
</g>
</g>
</svg>
