<?xml version="1.0" encoding="UTF-8" standalone="no"?>
<!DOCTYPE svg PUBLIC "-//W3C//DTD SVG 1.1//EN"
 "http://www.w3.org/Graphics/SVG/1.1/DTD/svg11.dtd">
<!-- Generated by graphviz version 2.38.0 (20140413.2041)
 -->
<!-- Title: Class Pages: 1 -->
<svg width="321pt" height="206pt"
 viewBox="0.00 0.00 321.00 206.00" xmlns="http://www.w3.org/2000/svg" xmlns:xlink="http://www.w3.org/1999/xlink">
<g id="graph0" class="graph" transform="scale(1 1) rotate(0) translate(4 202)">
<title>Class</title>
<polygon fill="white" stroke="none" points="-4,4 -4,-202 317,-202 317,4 -4,4"/>
<!-- N -->
<g id="node1" class="node"><title>N</title>
<text text-anchor="start" x="146.89" y="-179.8" font-family="DejaVu Sans Mono" font-size="14.00">DU</text>
<text text-anchor="start" x="11.5" y="-153.8" font-family="DejaVu Sans Mono" font-size="14.00">+ DU(path:File, interval:long): DU</text>
<text text-anchor="start" x="11.5" y="-135.8" font-family="DejaVu Sans Mono" font-size="14.00">+ decDfsUsed(value:long): void</text>
<text text-anchor="start" x="11.5" y="-117.8" font-family="DejaVu Sans Mono" font-size="14.00">+ incDfsUsed(value:long): void</text>
<text text-anchor="start" x="11.5" y="-99.8" font-family="DejaVu Sans Mono" font-size="14.00">+ getUsed(): long</text>
<text text-anchor="start" x="11.5" y="-81.8" font-family="DejaVu Sans Mono" font-size="14.00">+ getDirPath(): String</text>
<text text-anchor="start" x="11.5" y="-63.8" font-family="DejaVu Sans Mono" font-size="14.00">+ start(): void</text>
<text text-anchor="start" x="11.5" y="-45.8" font-family="DejaVu Sans Mono" font-size="14.00">+ shutdown(): void</text>
<text text-anchor="start" x="11.5" y="-27.8" font-family="DejaVu Sans Mono" font-size="14.00">+ getExecString(): String[]</text>
<text text-anchor="start" x="11.022" y="-9.8" font-family="DejaVu Sans Mono" font-size="14.00">+ parseExecResult(lines:BufferedReader): void</text>
<polygon fill="black" stroke="black" points="8.5,-175 8.5,-175 305.5,-175 305.5,-175 8.5,-175"/>
<polygon fill="black" stroke="black" points="8.5,-171 8.5,-171 305.5,-171 305.5,-171 8.5,-171"/>
<polygon fill="none" stroke="black" points="8,-4 8,-194 305,-194 305,-4 8,-4"/>
</g>
</g>
</svg>
