<?xml version="1.0" encoding="UTF-8" standalone="no"?>
<!DOCTYPE svg PUBLIC "-//W3C//DTD SVG 1.1//EN"
 "http://www.w3.org/Graphics/SVG/1.1/DTD/svg11.dtd">
<!-- Generated by graphviz version 2.38.0 (20140413.2041)
 -->
<!-- Title: Class Pages: 1 -->
<svg width="376pt" height="170pt"
 viewBox="0.00 0.00 376.00 170.00" xmlns="http://www.w3.org/2000/svg" xmlns:xlink="http://www.w3.org/1999/xlink">
<g id="graph0" class="graph" transform="scale(1 1) rotate(0) translate(4 166)">
<title>Class</title>
<polygon fill="white" stroke="none" points="-4,4 -4,-166 372,-166 372,4 -4,4"/>
<!-- N -->
<g id="node1" class="node"><title>N</title>
<text text-anchor="start" x="155.99" y="-143.8" font-family="DejaVu Sans Mono" font-size="14.00">FsConfig</text>
<text text-anchor="start" x="11" y="-117.8" font-family="DejaVu Sans Mono" font-size="14.00">+ getDefaultFsURI(conf:Configuration): String</text>
<text text-anchor="start" x="11" y="-99.8" font-family="DejaVu Sans Mono" font-size="14.00">+ getHomeDir(conf:Configuration): String</text>
<text text-anchor="start" x="10.6611" y="-81.8" font-family="DejaVu Sans Mono" font-size="14.00">+ getDefaultReplicationFactor(conf:Configuration): short</text>
<text text-anchor="start" x="11" y="-63.8" font-family="DejaVu Sans Mono" font-size="14.00">+ getDefaultBlockSize(conf:Configuration): long</text>
<text text-anchor="start" x="11" y="-45.8" font-family="DejaVu Sans Mono" font-size="14.00">+ getDefaultIOBuffersize(conf:Configuration): int</text>
<text text-anchor="start" x="11" y="-27.8" font-family="DejaVu Sans Mono" font-size="14.00">+ getImplClass(uri:URI, conf:Configuration): Class&lt;?&gt;</text>
<text text-anchor="start" x="11" y="-9.8" font-family="DejaVu Sans Mono" font-size="14.00">+ setDefaultFS(conf:Configuration, uri:String): void</text>
<polygon fill="black" stroke="black" points="8,-139 8,-139 360,-139 360,-139 8,-139"/>
<polygon fill="black" stroke="black" points="8,-135 8,-135 360,-135 360,-135 8,-135"/>
<polygon fill="none" stroke="black" points="8,-4 8,-158 360,-158 360,-4 8,-4"/>
</g>
</g>
</svg>
