<?xml version="1.0" encoding="UTF-8" standalone="no"?>
<!DOCTYPE svg PUBLIC "-//W3C//DTD SVG 1.1//EN"
 "http://www.w3.org/Graphics/SVG/1.1/DTD/svg11.dtd">
<!-- Generated by graphviz version 2.38.0 (20140413.2041)
 -->
<!-- Title: Class Pages: 1 -->
<svg width="427pt" height="152pt"
 viewBox="0.00 0.00 427.00 152.00" xmlns="http://www.w3.org/2000/svg" xmlns:xlink="http://www.w3.org/1999/xlink">
<g id="graph0" class="graph" transform="scale(1 1) rotate(0) translate(4 148)">
<title>Class</title>
<polygon fill="white" stroke="none" points="-4,4 -4,-148 423,-148 423,4 -4,4"/>
<!-- N -->
<g id="node1" class="node"><title>N</title>
<text text-anchor="start" x="162.924" y="-125.8" font-family="DejaVu Sans Mono" font-size="14.00">FSInputStream</text>
<text text-anchor="start" x="11.5" y="-99.8" font-family="DejaVu Sans Mono" font-size="14.00">+ seek(pos:long): void</text>
<text text-anchor="start" x="11.5" y="-81.8" font-family="DejaVu Sans Mono" font-size="14.00">+ getPos(): long</text>
<text text-anchor="start" x="11.5" y="-63.8" font-family="DejaVu Sans Mono" font-size="14.00">+ seekToNewSource(targetPos:long): boolean</text>
<text text-anchor="start" x="11.5" y="-45.8" font-family="DejaVu Sans Mono" font-size="14.00">+ read(position:long, buffer:byte[], offset:int, length:int): int</text>
<text text-anchor="start" x="11.2212" y="-27.8" font-family="DejaVu Sans Mono" font-size="14.00">+ readFully(position:long, buffer:byte[], offset:int, length:int): void</text>
<text text-anchor="start" x="11.5" y="-9.8" font-family="DejaVu Sans Mono" font-size="14.00">+ readFully(position:long, buffer:byte[]): void</text>
<polygon fill="black" stroke="black" points="8.5,-121 8.5,-121 411.5,-121 411.5,-121 8.5,-121"/>
<polygon fill="black" stroke="black" points="8.5,-117 8.5,-117 411.5,-117 411.5,-117 8.5,-117"/>
<polygon fill="none" stroke="black" points="8,-4 8,-140 411,-140 411,-4 8,-4"/>
</g>
</g>
</svg>
