<?xml version="1.0" encoding="UTF-8" standalone="no"?>
<!DOCTYPE svg PUBLIC "-//W3C//DTD SVG 1.1//EN"
 "http://www.w3.org/Graphics/SVG/1.1/DTD/svg11.dtd">
<!-- Generated by graphviz version 2.38.0 (20140413.2041)
 -->
<!-- Title: Class Pages: 1 -->
<svg width="452pt" height="260pt"
 viewBox="0.00 0.00 452.00 260.00" xmlns="http://www.w3.org/2000/svg" xmlns:xlink="http://www.w3.org/1999/xlink">
<g id="graph0" class="graph" transform="scale(1 1) rotate(0) translate(4 256)">
<title>Class</title>
<polygon fill="white" stroke="none" points="-4,4 -4,-256 448,-256 448,4 -4,4"/>
<!-- N -->
<g id="node1" class="node"><title>N</title>
<text text-anchor="start" x="165.593" y="-233.8" font-family="DejaVu Sans Mono" font-size="14.00">FSOutputSummer</text>
<text text-anchor="start" x="11" y="-211.8" font-family="DejaVu Sans Mono" font-size="14.00">&#45; buf: byte</text>
<text text-anchor="start" x="11" y="-193.8" font-family="DejaVu Sans Mono" font-size="14.00">&#45; checksum: byte</text>
<text text-anchor="start" x="11" y="-175.8" font-family="DejaVu Sans Mono" font-size="14.00">&#45; count: int</text>
<text text-anchor="start" x="11" y="-153.8" font-family="DejaVu Sans Mono" font-size="14.00">+ writeChunk(b:byte[], offset:int, len:int, checksum:byte[]): void</text>
<text text-anchor="start" x="11" y="-135.8" font-family="DejaVu Sans Mono" font-size="14.00">+ write(b:int): void</text>
<text text-anchor="start" x="11" y="-117.8" font-family="DejaVu Sans Mono" font-size="14.00">+ write(b:byte, false:int, len:int): void</text>
<text text-anchor="start" x="11" y="-99.8" font-family="DejaVu Sans Mono" font-size="14.00">+ write1(b:byte, false:int, len:int): int</text>
<text text-anchor="start" x="11" y="-81.8" font-family="DejaVu Sans Mono" font-size="14.00">+ flushBuffer(): void</text>
<text text-anchor="start" x="11" y="-63.8" font-family="DejaVu Sans Mono" font-size="14.00">+ flushBuffer(keep:boolean): void</text>
<text text-anchor="start" x="10.9165" y="-45.8" font-family="DejaVu Sans Mono" font-size="14.00">+ writeChecksumChunk(b:byte, false:int, len:int, keep:boolean): void</text>
<text text-anchor="start" x="11" y="-27.8" font-family="DejaVu Sans Mono" font-size="14.00">+ convertToByteStream(sum:Checksum, checksumSize:int): byte[]</text>
<text text-anchor="start" x="11" y="-9.8" font-family="DejaVu Sans Mono" font-size="14.00">+ resetChecksumChunk(size:int): void</text>
<polygon fill="black" stroke="black" points="8,-229 8,-229 436,-229 436,-229 8,-229"/>
<polygon fill="black" stroke="black" points="8,-171 8,-171 436,-171 436,-171 8,-171"/>
<polygon fill="none" stroke="black" points="8,-4 8,-248 436,-248 436,-4 8,-4"/>
</g>
</g>
</svg>
