<?xml version="1.0" encoding="UTF-8" standalone="no"?>
<!DOCTYPE svg PUBLIC "-//W3C//DTD SVG 1.1//EN"
 "http://www.w3.org/Graphics/SVG/1.1/DTD/svg11.dtd">
<!-- Generated by graphviz version 2.38.0 (20140413.2041)
 -->
<!-- Title: Class Pages: 1 -->
<svg width="398pt" height="278pt"
 viewBox="0.00 0.00 398.00 278.00" xmlns="http://www.w3.org/2000/svg" xmlns:xlink="http://www.w3.org/1999/xlink">
<g id="graph0" class="graph" transform="scale(1 1) rotate(0) translate(4 274)">
<title>Class</title>
<polygon fill="white" stroke="none" points="-4,4 -4,-274 394,-274 394,4 -4,4"/>
<!-- N -->
<g id="node1" class="node"><title>N</title>
<text text-anchor="start" x="152.604" y="-251.8" font-family="DejaVu Sans Mono" font-size="14.00">FsPermission</text>
<text text-anchor="start" x="11" y="-225.8" font-family="DejaVu Sans Mono" font-size="14.00">+ createImmutable(permission:short): FsPermission</text>
<text text-anchor="start" x="11" y="-207.8" font-family="DejaVu Sans Mono" font-size="14.00">+ getUserAction(): FsAction</text>
<text text-anchor="start" x="11" y="-189.8" font-family="DejaVu Sans Mono" font-size="14.00">+ getGroupAction(): FsAction</text>
<text text-anchor="start" x="11" y="-171.8" font-family="DejaVu Sans Mono" font-size="14.00">+ getOtherAction(): FsAction</text>
<text text-anchor="start" x="11" y="-153.8" font-family="DejaVu Sans Mono" font-size="14.00">+ set(u:FsAction, g:FsAction, o:FsAction, sb:boolean): void</text>
<text text-anchor="start" x="11" y="-135.8" font-family="DejaVu Sans Mono" font-size="14.00">+ fromShort(n:short): void</text>
<text text-anchor="start" x="11" y="-117.8" font-family="DejaVu Sans Mono" font-size="14.00">+ toShort(): short</text>
<text text-anchor="start" x="11" y="-99.8" font-family="DejaVu Sans Mono" font-size="14.00">+ equals(obj:Object): boolean</text>
<text text-anchor="start" x="11" y="-81.8" font-family="DejaVu Sans Mono" font-size="14.00">+ applyUMask(umask:FsPermission): FsPermission</text>
<text text-anchor="start" x="11" y="-63.8" font-family="DejaVu Sans Mono" font-size="14.00">+ getUMask(conf:Configuration): FsPermission</text>
<text text-anchor="start" x="10.7954" y="-45.8" font-family="DejaVu Sans Mono" font-size="14.00">+ setUMask(conf:Configuration, umask:FsPermission): void</text>
<text text-anchor="start" x="11" y="-27.8" font-family="DejaVu Sans Mono" font-size="14.00">+ getDefault(): FsPermission</text>
<text text-anchor="start" x="11" y="-9.8" font-family="DejaVu Sans Mono" font-size="14.00">+ valueOf(unixSymbolicPermission:String): FsPermission</text>
<polygon fill="black" stroke="black" points="8,-247 8,-247 382,-247 382,-247 8,-247"/>
<polygon fill="black" stroke="black" points="8,-243 8,-243 382,-243 382,-243 8,-243"/>
<polygon fill="none" stroke="black" points="8,-4 8,-266 382,-266 382,-4 8,-4"/>
</g>
</g>
</svg>
