<?xml version="1.0" encoding="UTF-8" standalone="no"?>
<!DOCTYPE svg PUBLIC "-//W3C//DTD SVG 1.1//EN"
 "http://www.w3.org/Graphics/SVG/1.1/DTD/svg11.dtd">
<!-- Generated by graphviz version 2.38.0 (20140413.2041)
 -->
<!-- Title: Class Pages: 1 -->
<svg width="419pt" height="152pt"
 viewBox="0.00 0.00 419.00 152.00" xmlns="http://www.w3.org/2000/svg" xmlns:xlink="http://www.w3.org/1999/xlink">
<g id="graph0" class="graph" transform="scale(1 1) rotate(0) translate(4 148)">
<title>Class</title>
<polygon fill="white" stroke="none" points="-4,4 -4,-148 415,-148 415,4 -4,4"/>
<!-- N -->
<g id="node1" class="node"><title>N</title>
<text text-anchor="start" x="178.379" y="-125.8" font-family="DejaVu Sans Mono" font-size="14.00">FsStatus</text>
<text text-anchor="start" x="11.2612" y="-99.8" font-family="DejaVu Sans Mono" font-size="14.00">+ FsStatus(capacity:long, used:long, remaining:long): FsStatus</text>
<text text-anchor="start" x="11.5" y="-81.8" font-family="DejaVu Sans Mono" font-size="14.00">+ getCapacity(): long</text>
<text text-anchor="start" x="11.5" y="-63.8" font-family="DejaVu Sans Mono" font-size="14.00">+ getUsed(): long</text>
<text text-anchor="start" x="11.5" y="-45.8" font-family="DejaVu Sans Mono" font-size="14.00">+ getRemaining(): long</text>
<text text-anchor="start" x="11.5" y="-27.8" font-family="DejaVu Sans Mono" font-size="14.00">+ write(out:DataOutput): void</text>
<text text-anchor="start" x="11.5" y="-9.8" font-family="DejaVu Sans Mono" font-size="14.00">+ readFields(in:DataInput): void</text>
<polygon fill="black" stroke="black" points="8.5,-121 8.5,-121 403.5,-121 403.5,-121 8.5,-121"/>
<polygon fill="black" stroke="black" points="8.5,-117 8.5,-117 403.5,-117 403.5,-117 8.5,-117"/>
<polygon fill="none" stroke="black" points="8,-4 8,-140 403,-140 403,-4 8,-4"/>
</g>
</g>
</svg>
