<?xml version="1.0" encoding="UTF-8" standalone="no"?>
<!DOCTYPE svg PUBLIC "-//W3C//DTD SVG 1.1//EN"
 "http://www.w3.org/Graphics/SVG/1.1/DTD/svg11.dtd">
<!-- Generated by graphviz version 2.38.0 (20140413.2041)
 -->
<!-- Title: Class Pages: 1 -->
<svg width="664pt" height="152pt"
 viewBox="0.00 0.00 664.00 152.00" xmlns="http://www.w3.org/2000/svg" xmlns:xlink="http://www.w3.org/1999/xlink">
<g id="graph0" class="graph" transform="scale(1 1) rotate(0) translate(4 148)">
<title>Class</title>
<polygon fill="white" stroke="none" points="-4,4 -4,-148 660,-148 660,4 -4,4"/>
<!-- N -->
<g id="node1" class="node"><title>N</title>
<text text-anchor="start" x="276.648" y="-125.8" font-family="DejaVu Sans Mono" font-size="14.00">FTPInputStream</text>
<text text-anchor="start" x="10.7646" y="-99.8" font-family="DejaVu Sans Mono" font-size="14.00">+ FTPInputStream(stream:InputStream, client:FTPClient, stats:FileSystem.Statistics): FTPInputStream</text>
<text text-anchor="start" x="11" y="-81.8" font-family="DejaVu Sans Mono" font-size="14.00">+ getPos(): long</text>
<text text-anchor="start" x="11" y="-63.8" font-family="DejaVu Sans Mono" font-size="14.00">+ seek(pos:long): void</text>
<text text-anchor="start" x="11" y="-45.8" font-family="DejaVu Sans Mono" font-size="14.00">+ read(): int</text>
<text text-anchor="start" x="11" y="-27.8" font-family="DejaVu Sans Mono" font-size="14.00">+ read(buf:byte, false:int, len:int): int</text>
<text text-anchor="start" x="11" y="-9.8" font-family="DejaVu Sans Mono" font-size="14.00">+ close(): void</text>
<polygon fill="black" stroke="black" points="8,-121 8,-121 648,-121 648,-121 8,-121"/>
<polygon fill="black" stroke="black" points="8,-117 8,-117 648,-117 648,-117 8,-117"/>
<polygon fill="none" stroke="black" points="8,-4 8,-140 648,-140 648,-4 8,-4"/>
</g>
</g>
</svg>
