<?xml version="1.0" encoding="UTF-8" standalone="no"?>
<!DOCTYPE svg PUBLIC "-//W3C//DTD SVG 1.1//EN"
 "http://www.w3.org/Graphics/SVG/1.1/DTD/svg11.dtd">
<!-- Generated by graphviz version 2.38.0 (20140413.2041)
 -->
<!-- Title: Class Pages: 1 -->
<svg width="764pt" height="224pt"
 viewBox="0.00 0.00 764.00 224.00" xmlns="http://www.w3.org/2000/svg" xmlns:xlink="http://www.w3.org/1999/xlink">
<g id="graph0" class="graph" transform="scale(1 1) rotate(0) translate(4 220)">
<title>Class</title>
<polygon fill="white" stroke="none" points="-4,4 -4,-220 760,-220 760,4 -4,4"/>
<!-- N -->
<g id="node1" class="node"><title>N</title>
<text text-anchor="start" x="281.145" y="-197.8" font-family="DejaVu Sans Mono" font-size="14.00">MD5MD5CRC32FileChecksum</text>
<text text-anchor="start" x="11" y="-171.8" font-family="DejaVu Sans Mono" font-size="14.00">+ MD5MD5CRC32FileChecksum(): MD5MD5CRC32FileChecksum</text>
<text text-anchor="start" x="10.5957" y="-153.8" font-family="DejaVu Sans Mono" font-size="14.00">+ MD5MD5CRC32FileChecksum(bytesPerCRC:int, crcPerBlock:long, md5:MD5Hash): MD5MD5CRC32FileChecksum</text>
<text text-anchor="start" x="11" y="-135.8" font-family="DejaVu Sans Mono" font-size="14.00">+ getAlgorithmName(): String</text>
<text text-anchor="start" x="11" y="-117.8" font-family="DejaVu Sans Mono" font-size="14.00">+ getLength(): int</text>
<text text-anchor="start" x="11" y="-99.8" font-family="DejaVu Sans Mono" font-size="14.00">+ getBytes(): byte[]</text>
<text text-anchor="start" x="11" y="-81.8" font-family="DejaVu Sans Mono" font-size="14.00">+ readFields(in:DataInput): void</text>
<text text-anchor="start" x="11" y="-63.8" font-family="DejaVu Sans Mono" font-size="14.00">+ write(out:DataOutput): void</text>
<text text-anchor="start" x="11" y="-45.8" font-family="DejaVu Sans Mono" font-size="14.00">+ write(xml:XMLOutputter, that:MD5MD5CRC32FileChecksum): void</text>
<text text-anchor="start" x="11" y="-27.8" font-family="DejaVu Sans Mono" font-size="14.00">+ valueOf(attrs:Attributes): MD5MD5CRC32FileChecksum</text>
<text text-anchor="start" x="11" y="-9.8" font-family="DejaVu Sans Mono" font-size="14.00">+ toString(): String</text>
<polygon fill="black" stroke="black" points="8,-193 8,-193 748,-193 748,-193 8,-193"/>
<polygon fill="black" stroke="black" points="8,-189 8,-189 748,-189 748,-189 8,-189"/>
<polygon fill="none" stroke="black" points="8,-4 8,-212 748,-212 748,-4 8,-4"/>
</g>
</g>
</svg>
