<?xml version="1.0" encoding="UTF-8" standalone="no"?>
<!DOCTYPE svg PUBLIC "-//W3C//DTD SVG 1.1//EN"
 "http://www.w3.org/Graphics/SVG/1.1/DTD/svg11.dtd">
<!-- Generated by graphviz version 2.38.0 (20140413.2041)
 -->
<!-- Title: Class Pages: 1 -->
<svg width="320pt" height="152pt"
 viewBox="0.00 0.00 320.00 152.00" xmlns="http://www.w3.org/2000/svg" xmlns:xlink="http://www.w3.org/1999/xlink">
<g id="graph0" class="graph" transform="scale(1 1) rotate(0) translate(4 148)">
<title>Class</title>
<polygon fill="white" stroke="none" points="-4,4 -4,-148 316,-148 316,4 -4,4"/>
<!-- N -->
<g id="node1" class="node"><title>N</title>
<text text-anchor="start" x="90.645" y="-125.8" font-family="DejaVu Sans Mono" font-size="14.00">RawLocalFileSystem</text>
<text text-anchor="start" x="11" y="-103.8" font-family="DejaVu Sans Mono" font-size="14.00">static NAME: URI</text>
<text text-anchor="start" x="11" y="-85.8" font-family="DejaVu Sans Mono" font-size="14.00">&#45; workingDir: Path</text>
<text text-anchor="start" x="10.7056" y="-63.8" font-family="DejaVu Sans Mono" font-size="14.00">+ RawLocalFileSystem(): RawLocalFileSystem</text>
<text text-anchor="start" x="11" y="-45.8" font-family="DejaVu Sans Mono" font-size="14.00">+ pathToFile(path:Path): File</text>
<text text-anchor="start" x="11" y="-27.8" font-family="DejaVu Sans Mono" font-size="14.00">+ getUri(): URI</text>
<text text-anchor="start" x="11" y="-9.8" font-family="DejaVu Sans Mono" font-size="14.00">+ initialize(uri:URI, conf:Configuration): void</text>
<polygon fill="black" stroke="black" points="8,-121 8,-121 304,-121 304,-121 8,-121"/>
<polygon fill="black" stroke="black" points="8,-81 8,-81 304,-81 304,-81 8,-81"/>
<polygon fill="none" stroke="black" points="8,-4 8,-140 304,-140 304,-4 8,-4"/>
</g>
</g>
</svg>
