<?xml version="1.0" encoding="UTF-8" standalone="no"?>
<!DOCTYPE svg PUBLIC "-//W3C//DTD SVG 1.1//EN"
 "http://www.w3.org/Graphics/SVG/1.1/DTD/svg11.dtd">
<!-- Generated by graphviz version 2.38.0 (20140413.2041)
 -->
<!-- Title: Class Pages: 1 -->
<svg width="444pt" height="152pt"
 viewBox="0.00 0.00 444.00 152.00" xmlns="http://www.w3.org/2000/svg" xmlns:xlink="http://www.w3.org/1999/xlink">
<g id="graph0" class="graph" transform="scale(1 1) rotate(0) translate(4 148)">
<title>Class</title>
<polygon fill="white" stroke="none" points="-4,4 -4,-148 440,-148 440,4 -4,4"/>
<!-- N -->
<g id="node1" class="node"><title>N</title>
<text text-anchor="start" x="179.486" y="-125.8" font-family="DejaVu Sans Mono" font-size="14.00">RawLocalFs</text>
<text text-anchor="start" x="11" y="-99.8" font-family="DejaVu Sans Mono" font-size="14.00">+ getUriDefaultPort(): int</text>
<text text-anchor="start" x="11" y="-81.8" font-family="DejaVu Sans Mono" font-size="14.00">+ getServerDefaults(): FsServerDefaults</text>
<text text-anchor="start" x="10.8062" y="-63.8" font-family="DejaVu Sans Mono" font-size="14.00">+ createSymlink(target:Path, link:Path, createParent:boolean): void</text>
<text text-anchor="start" x="11" y="-45.8" font-family="DejaVu Sans Mono" font-size="14.00">+ readLink(p:Path): String</text>
<text text-anchor="start" x="11" y="-27.8" font-family="DejaVu Sans Mono" font-size="14.00">+ getFileLinkStatus(f:Path): FileStatus</text>
<text text-anchor="start" x="11" y="-9.8" font-family="DejaVu Sans Mono" font-size="14.00">+ getLinkTarget(f:Path): Path</text>
<polygon fill="black" stroke="black" points="8,-121 8,-121 428,-121 428,-121 8,-121"/>
<polygon fill="black" stroke="black" points="8,-117 8,-117 428,-117 428,-117 8,-117"/>
<polygon fill="none" stroke="black" points="8,-4 8,-140 428,-140 428,-4 8,-4"/>
</g>
</g>
</svg>
