<?xml version="1.0" encoding="UTF-8" standalone="no"?>
<!DOCTYPE svg PUBLIC "-//W3C//DTD SVG 1.1//EN"
 "http://www.w3.org/Graphics/SVG/1.1/DTD/svg11.dtd">
<!-- Generated by graphviz version 2.38.0 (20140413.2041)
 -->
<!-- Title: Class Pages: 1 -->
<svg width="436pt" height="188pt"
 viewBox="0.00 0.00 436.00 188.00" xmlns="http://www.w3.org/2000/svg" xmlns:xlink="http://www.w3.org/1999/xlink">
<g id="graph0" class="graph" transform="scale(1 1) rotate(0) translate(4 184)">
<title>Class</title>
<polygon fill="white" stroke="none" points="-4,4 -4,-184 432,-184 432,4 -4,4"/>
<!-- N -->
<g id="node1" class="node"><title>N</title>
<text text-anchor="start" x="196.363" y="-161.8" font-family="DejaVu Sans Mono" font-size="14.00">Trash</text>
<text text-anchor="start" x="11" y="-135.8" font-family="DejaVu Sans Mono" font-size="14.00">+ Trash(fs:FileSystem, conf:Configuration): Trash</text>
<text text-anchor="start" x="10.5728" y="-117.8" font-family="DejaVu Sans Mono" font-size="14.00">+ makeTrashRelativePath(basePath:Path, rmFilePath:Path): Path</text>
<text text-anchor="start" x="11" y="-99.8" font-family="DejaVu Sans Mono" font-size="14.00">+ moveToTrash(path:Path): boolean</text>
<text text-anchor="start" x="11" y="-81.8" font-family="DejaVu Sans Mono" font-size="14.00">+ checkpoint(): void</text>
<text text-anchor="start" x="11" y="-63.8" font-family="DejaVu Sans Mono" font-size="14.00">+ expunge(): void</text>
<text text-anchor="start" x="11" y="-45.8" font-family="DejaVu Sans Mono" font-size="14.00">+ getCurrentTrashDir(): Path</text>
<text text-anchor="start" x="11" y="-27.8" font-family="DejaVu Sans Mono" font-size="14.00">+ getEmptier(): Runnable</text>
<text text-anchor="start" x="11" y="-9.8" font-family="DejaVu Sans Mono" font-size="14.00">+ main(args:String[]): void</text>
<polygon fill="black" stroke="black" points="8,-157 8,-157 420,-157 420,-157 8,-157"/>
<polygon fill="black" stroke="black" points="8,-153 8,-153 420,-153 420,-153 8,-153"/>
<polygon fill="none" stroke="black" points="8,-4 8,-176 420,-176 420,-4 8,-4"/>
</g>
</g>
</svg>
